<?xml version="1.0" encoding="UTF-8"?>
<svg width="23px" height="23px" viewBox="0 0 23 23" version="1.1" xmlns="http://www.w3.org/2000/svg" xmlns:xlink="http://www.w3.org/1999/xlink">
    <!-- Generator: Sketch 64 (93537) - https://sketch.com -->
    <title>Shape</title>
    <desc>Created with Sketch.</desc>
    <g id="Page-1" stroke="none" stroke-width="1" fill="none" fill-rule="evenodd">
        <g id="iPhone-11" transform="translate(-309.000000, -812.000000)" fill="#FFFFFF" fill-rule="nonzero">
            <g id="Regular-M" transform="translate(309.659953, 812.000000)">
                <path d="M11.2375722,22.3553094 C17.295157,22.3553094 22.3106658,17.3398873 22.3106658,11.2823047 C22.3106658,5.23556958 17.2843074,0.209300058 11.2267226,0.209300058 C5.17998745,0.209300058 0.164574232,5.23556958 0.164574232,11.2823047 C0.164574232,17.3398873 5.19085932,22.3553094 11.2375722,22.3553094 Z M11.2375722,20.5098049 C6.11358933,20.5098049 2.02092168,16.4062876 2.02092168,11.2823047 C2.02092168,6.16917145 6.1027397,2.05480454 11.2267226,2.05480454 C16.3507055,2.05480454 20.4542228,6.16917145 20.4651385,11.2823047 C20.476011,16.4062876 16.3615551,20.5098049 11.2375722,20.5098049 Z M11.1398811,7.41761273 C11.9323488,7.41761273 12.5511335,6.78795616 12.5511335,6.00633805 C12.5511335,5.21387032 11.9323488,4.58421375 11.1398811,4.58421375 C10.3582407,4.58421375 9.72860641,5.21387032 9.72860641,6.00633805 C9.72860641,6.78795616 10.3582407,7.41761273 11.1398811,7.41761273 Z M9.33779736,17.2530391 L13.7561318,17.2530391 C14.2012335,17.2530391 14.5486218,16.9382197 14.5486218,16.4931291 C14.5486218,16.069749 14.2012335,15.7332103 13.7561318,15.7332103 L12.4100216,15.7332103 L12.4100216,10.2075687 C12.4100216,9.62135514 12.1169037,9.23054608 11.5632613,9.23054608 L9.52235225,9.23054608 C9.07725058,9.23054608 8.72986228,9.56706251 8.72986228,9.99044269 C8.72986228,10.4355444 9.07725058,10.7503615 9.52235225,10.7503615 L10.6839298,10.7503615 L10.6839298,15.7332103 L9.33779736,15.7332103 C8.89269568,15.7332103 8.54530739,16.069749 8.54530739,16.4931291 C8.54530739,16.9382197 8.89269568,17.2530391 9.33779736,17.2530391 Z" id="Shape"></path>
            </g>
        </g>
    </g>
</svg>