<?xml version="1.0" encoding="UTF-8"?>
<svg width="22px" height="21px" viewBox="0 0 22 21" version="1.1" xmlns="http://www.w3.org/2000/svg" xmlns:xlink="http://www.w3.org/1999/xlink">
    <!-- Generator: Sketch 64 (93537) - https://sketch.com -->
    <title>Shape</title>
    <desc>Created with Sketch.</desc>
    <g id="Page-1" stroke="none" stroke-width="1" fill="none" fill-rule="evenodd">
        <g id="iPhone-11" transform="translate(-90.000000, -821.000000)" fill="#FFFFFF" fill-rule="nonzero">
            <g id="Group" transform="translate(90.659953, 821.000000)">
                <g id="Regular-M">
                    <path d="M1.00952136,7.19926304 C1.6090854,7.19926304 1.92583796,6.8712045 1.92583796,6.27164047 L1.92583796,3.60190198 C1.92583796,2.42540902 2.54801394,1.82584498 3.67928302,1.82584498 L6.41690367,1.82584498 C7.01646771,1.82584498 7.34452624,1.49776328 7.34452624,0.909528382 C7.34452624,0.332576288 7.01646771,0.00451775522 6.41690367,0.00451775522 L3.65664791,0.00451775522 C1.29233284,0.00451775522 0.104533905,1.16970475 0.104533905,3.50007873 L0.104533905,6.27164047 C0.104533905,6.8712045 0.432592438,7.19926304 1.00952136,7.19926304 Z M19.9579366,7.19926304 C20.557408,7.19926304 20.8743459,6.8712045 20.8743459,6.27164047 L20.8743459,3.50007873 C20.8743459,1.16970475 19.6864543,0.00451775522 17.3221392,0.00451775522 L14.5505775,0.00451775522 C13.9623194,0.00451775522 13.6342609,0.332576288 13.6342609,0.909528382 C13.6342609,1.49776328 13.9623194,1.82584498 14.5505775,1.82584498 L17.2881982,1.82584498 C18.4081381,1.82584498 19.0529492,2.42540902 19.0529492,3.60190198 L19.0529492,6.27164047 C19.0529492,6.8712045 19.3810077,7.19926304 19.9579366,7.19926304 Z M10.0029588,9.40520182 L10.0029588,5.45714712 C10.0029588,5.18564162 9.78800628,4.95938317 9.50519481,4.95938317 L5.5571401,4.95938317 C5.28565777,4.95938317 5.07070529,5.18564162 5.07070529,5.45714712 L5.07070529,9.40520182 C5.07070529,9.67670733 5.28565777,9.89163664 5.5571401,9.89163664 L9.50519481,9.89163664 C9.78800628,9.89163664 10.0029588,9.67670733 10.0029588,9.40520182 Z M11.960004,5.94358193 L14.9238831,5.94358193 L14.9238831,8.90746104 L11.960004,8.90746104 L11.960004,5.94358193 Z M14.0641427,8.04769747 L14.0641427,6.81465148 L12.8197676,6.81465148 L12.8197676,8.04769747 L14.0641427,8.04769747 Z M8.14771362,8.04769747 L8.14771362,6.81465148 L6.91464446,6.81465148 L6.91464446,8.04769747 L8.14771362,8.04769747 Z M6.04357492,11.860011 L9.01875999,11.860011 L9.01875999,14.8238901 L6.04357492,14.8238901 L6.04357492,11.860011 Z M15.7610115,12.2446457 L15.7610115,11.0115766 L14.5279424,11.0115766 L14.5279424,12.2446457 L15.7610115,12.2446457 Z M12.3559447,12.2446457 L12.3559447,11.0115766 L11.1228987,11.0115766 L11.1228987,12.2446457 L12.3559447,12.2446457 Z M8.14771362,13.9528206 L8.14771362,12.7197514 L6.91464446,12.7197514 L6.91464446,13.9528206 L8.14771362,13.9528206 Z M14.0528135,13.9528206 L14.0528135,12.7197514 L12.8197676,12.7197514 L12.8197676,13.9528206 L14.0528135,13.9528206 Z M14.5505775,20.7629404 L17.3221392,20.7629404 C19.6864543,20.7629404 20.8743459,19.5864428 20.8743459,17.2560688 L20.8743459,14.4958316 C20.8743459,13.8962675 20.5462874,13.568209 19.9579366,13.568209 C19.3697017,13.568209 19.0529492,13.8962675 19.0529492,14.4958316 L19.0529492,17.1655701 C19.0529492,18.3420681 18.4081381,18.9416294 17.2881982,18.9416294 L14.5505775,18.9416294 C13.9623194,18.9416294 13.6342609,19.2696925 13.6342609,19.8579413 C13.6342609,20.4348772 13.9623194,20.7629404 14.5505775,20.7629404 Z M3.65664791,20.7629404 L6.41690367,20.7629404 C7.01646771,20.7629404 7.34452624,20.4348772 7.34452624,19.8579413 C7.34452624,19.2696925 7.01646771,18.9416294 6.41690367,18.9416294 L3.67928302,18.9416294 C2.54801394,18.9416294 1.92583796,18.3420681 1.92583796,17.1655701 L1.92583796,14.4958316 C1.92583796,13.8962675 1.59777943,13.568209 1.00952136,13.568209 C0.421286466,13.568209 0.104533905,13.8962675 0.104533905,14.4958316 L0.104533905,17.2560688 C0.104533905,19.5977534 1.29233284,20.7629404 3.65664791,20.7629404 Z M12.3559447,15.6610186 L12.3559447,14.4279494 L11.1228987,14.4279494 L11.1228987,15.6610186 L12.3559447,15.6610186 Z M15.7610115,15.6610186 L15.7610115,14.4279494 L14.5279424,14.4279494 L14.5279424,15.6610186 L15.7610115,15.6610186 Z M15.9080819,9.40520182 L15.9080819,5.45714712 C15.9080819,5.18564162 15.6931294,4.95938317 15.4103179,4.95938317 L11.4735692,4.95938317 C11.1907577,4.95938317 10.9758284,5.18564162 10.9758284,5.45714712 L10.9758284,9.40520182 C10.9758284,9.67670733 11.1907577,9.89163664 11.4735692,9.89163664 L15.4103179,9.89163664 C15.6931294,9.89163664 15.9080819,9.67670733 15.9080819,9.40520182 Z M6.04357492,5.94358193 L9.01875999,5.94358193 L9.01875999,8.90746104 L6.04357492,8.90746104 L6.04357492,5.94358193 Z M10.0029588,15.3103249 L10.0029588,11.3622702 C10.0029588,11.0907647 9.78800628,10.8758354 9.50519481,10.8758354 L5.5571401,10.8758354 C5.28565777,10.8758354 5.07070529,11.0907647 5.07070529,11.3622702 L5.07070529,15.3103249 C5.07070529,15.5818304 5.28565777,15.8080657 5.5571401,15.8080657 L9.50519481,15.8080657 C9.78800628,15.8080657 10.0029588,15.5818304 10.0029588,15.3103249 Z" id="Shape"></path>
                </g>
            </g>
        </g>
    </g>
</svg>